<svg xmlns="http://www.w3.org/2000/svg" xmlns:xlink="http://www.w3.org/1999/xlink" width="500" zoomAndPan="magnify" viewBox="0 0 375 374.999991" height="500" preserveAspectRatio="xMidYMid meet" version="1.0"><defs><clipPath id="02b2657801"><path d="M 15.234375 91 L 359.484375 91 L 359.484375 375 L 15.234375 375 Z M 15.234375 91 " clip-rule="nonzero"/></clipPath></defs><g clip-path="url(#02b2657801)"><path fill="#ffffff" d="M 359.082031 294.136719 L 359.082031 119.980469 C 359.078125 119.046875 359.03125 118.121094 358.9375 117.191406 C 358.847656 116.265625 358.707031 115.34375 358.523438 114.433594 C 358.34375 113.519531 358.113281 112.617188 357.84375 111.726562 C 357.574219 110.835938 357.257812 109.960938 356.902344 109.097656 C 356.542969 108.238281 356.144531 107.398438 355.707031 106.578125 C 355.265625 105.753906 354.789062 104.957031 354.269531 104.183594 C 353.75 103.410156 353.195312 102.664062 352.605469 101.941406 C 352.015625 101.222656 351.390625 100.535156 350.730469 99.875 C 350.074219 99.214844 349.382812 98.589844 348.664062 98 C 347.945312 97.410156 347.195312 96.855469 346.421875 96.335938 C 345.648438 95.820312 344.851562 95.339844 344.03125 94.902344 C 343.207031 94.460938 342.367188 94.0625 341.507812 93.707031 C 340.648438 93.347656 339.773438 93.035156 338.878906 92.761719 C 337.988281 92.492188 337.085938 92.265625 336.175781 92.082031 C 335.261719 91.898438 334.339844 91.761719 333.414062 91.667969 C 332.488281 91.574219 331.558594 91.527344 330.625 91.527344 L 281.957031 91.527344 C 281.292969 91.527344 280.636719 91.589844 279.984375 91.71875 C 279.335938 91.851562 278.703125 92.042969 278.089844 92.296875 C 277.476562 92.550781 276.894531 92.859375 276.34375 93.230469 C 275.789062 93.597656 275.28125 94.015625 274.808594 94.488281 C 274.339844 94.957031 273.921875 95.464844 273.554688 96.019531 C 273.183594 96.570312 272.875 97.152344 272.617188 97.765625 C 272.363281 98.378906 272.171875 99.011719 272.042969 99.664062 C 271.914062 100.3125 271.851562 100.96875 271.851562 101.632812 C 271.851562 102.296875 271.914062 102.957031 272.042969 103.605469 C 272.171875 104.257812 272.363281 104.890625 272.617188 105.503906 C 272.875 106.117188 273.183594 106.699219 273.554688 107.25 C 273.921875 107.800781 274.339844 108.3125 274.808594 108.78125 C 275.28125 109.25 275.789062 109.667969 276.34375 110.039062 C 276.894531 110.40625 277.476562 110.71875 278.089844 110.972656 C 278.703125 111.226562 279.335938 111.417969 279.984375 111.546875 C 280.636719 111.675781 281.292969 111.742188 281.957031 111.742188 L 330.625 111.742188 C 331.167969 111.742188 331.703125 111.792969 332.234375 111.898438 C 332.765625 112.003906 333.28125 112.160156 333.777344 112.367188 C 334.277344 112.574219 334.753906 112.828125 335.203125 113.128906 C 335.652344 113.429688 336.070312 113.773438 336.453125 114.15625 C 336.835938 114.539062 337.175781 114.953125 337.476562 115.402344 C 337.777344 115.851562 338.03125 116.328125 338.238281 116.828125 C 338.445312 117.328125 338.601562 117.84375 338.707031 118.371094 C 338.8125 118.902344 338.863281 119.4375 338.863281 119.980469 L 338.863281 294.136719 C 338.851562 296.121094 338.746094 298.097656 338.539062 300.070312 C 338.335938 302.042969 338.035156 304 337.640625 305.945312 C 337.246094 307.886719 336.757812 309.808594 336.175781 311.703125 C 335.59375 313.597656 334.917969 315.460938 334.15625 317.292969 C 333.390625 319.121094 332.539062 320.910156 331.601562 322.65625 C 330.660156 324.402344 329.640625 326.101562 328.535156 327.75 C 327.433594 329.394531 326.25 330.984375 324.992188 332.515625 C 323.730469 334.050781 322.402344 335.515625 321 336.917969 C 319.597656 338.320312 318.128906 339.652344 316.597656 340.910156 C 315.066406 342.171875 313.476562 343.351562 311.828125 344.457031 C 310.179688 345.558594 308.484375 346.582031 306.738281 347.519531 C 304.988281 348.457031 303.203125 349.308594 301.371094 350.074219 C 299.542969 350.839844 297.679688 351.511719 295.785156 352.09375 C 293.886719 352.675781 291.96875 353.164062 290.023438 353.5625 C 288.082031 353.957031 286.125 354.257812 284.152344 354.460938 C 282.179688 354.664062 280.199219 354.773438 278.21875 354.785156 L 97.035156 354.785156 C 95.027344 354.78125 93.027344 354.683594 91.027344 354.484375 C 89.03125 354.285156 87.050781 353.992188 85.082031 353.597656 C 83.113281 353.207031 81.167969 352.71875 79.25 352.136719 C 77.328125 351.554688 75.441406 350.878906 73.585938 350.109375 C 71.734375 349.34375 69.921875 348.484375 68.152344 347.539062 C 66.378906 346.59375 64.660156 345.5625 62.992188 344.449219 C 61.324219 343.335938 59.710938 342.140625 58.160156 340.871094 C 56.609375 339.597656 55.121094 338.253906 53.703125 336.835938 C 52.28125 335.417969 50.933594 333.933594 49.660156 332.382812 C 48.382812 330.832031 47.1875 329.222656 46.070312 327.558594 C 44.953125 325.890625 43.921875 324.171875 42.972656 322.402344 C 42.023438 320.636719 41.164062 318.824219 40.394531 316.972656 C 39.621094 315.117188 38.945312 313.234375 38.359375 311.3125 C 37.769531 309.394531 37.28125 307.449219 36.886719 305.484375 C 36.488281 303.515625 36.191406 301.53125 35.988281 299.535156 C 35.789062 297.539062 35.683594 295.539062 35.679688 293.53125 L 35.679688 119.980469 C 35.679688 119.4375 35.734375 118.898438 35.839844 118.367188 C 35.945312 117.832031 36.105469 117.316406 36.3125 116.816406 C 36.519531 116.3125 36.777344 115.839844 37.078125 115.386719 C 37.382812 114.9375 37.726562 114.519531 38.109375 114.136719 C 38.496094 113.753906 38.914062 113.414062 39.367188 113.113281 C 39.820312 112.8125 40.296875 112.558594 40.800781 112.355469 C 41.304688 112.148438 41.820312 111.996094 42.355469 111.890625 C 42.886719 111.789062 43.425781 111.738281 43.96875 111.742188 L 98.097656 111.742188 C 98.761719 111.742188 99.417969 111.675781 100.066406 111.546875 C 100.71875 111.417969 101.351562 111.226562 101.964844 110.972656 C 102.578125 110.71875 103.160156 110.40625 103.710938 110.039062 C 104.265625 109.667969 104.773438 109.25 105.242188 108.78125 C 105.714844 108.3125 106.132812 107.800781 106.5 107.25 C 106.871094 106.699219 107.179688 106.117188 107.433594 105.503906 C 107.6875 104.890625 107.878906 104.257812 108.011719 103.605469 C 108.140625 102.957031 108.203125 102.296875 108.203125 101.632812 C 108.203125 100.96875 108.140625 100.3125 108.011719 99.664062 C 107.878906 99.011719 107.6875 98.378906 107.433594 97.765625 C 107.179688 97.152344 106.871094 96.570312 106.5 96.019531 C 106.132812 95.464844 105.714844 94.957031 105.242188 94.488281 C 104.773438 94.015625 104.265625 93.597656 103.710938 93.230469 C 103.160156 92.859375 102.578125 92.550781 101.964844 92.296875 C 101.351562 92.042969 100.71875 91.851562 100.066406 91.71875 C 99.417969 91.589844 98.761719 91.527344 98.097656 91.527344 L 43.96875 91.527344 C 43.039062 91.527344 42.109375 91.574219 41.179688 91.667969 C 40.253906 91.761719 39.335938 91.898438 38.421875 92.082031 C 37.507812 92.265625 36.605469 92.492188 35.714844 92.761719 C 34.824219 93.035156 33.949219 93.347656 33.089844 93.707031 C 32.226562 94.0625 31.386719 94.460938 30.566406 94.902344 C 29.746094 95.339844 28.945312 95.820312 28.171875 96.335938 C 27.398438 96.855469 26.652344 97.410156 25.933594 98 C 25.210938 98.589844 24.523438 99.214844 23.863281 99.875 C 23.207031 100.535156 22.582031 101.222656 21.988281 101.941406 C 21.398438 102.664062 20.84375 103.410156 20.328125 104.183594 C 19.808594 104.957031 19.328125 105.753906 18.890625 106.578125 C 18.449219 107.398438 18.050781 108.238281 17.695312 109.097656 C 17.335938 109.960938 17.023438 110.835938 16.753906 111.726562 C 16.480469 112.617188 16.253906 113.519531 16.070312 114.433594 C 15.886719 115.34375 15.75 116.265625 15.65625 117.191406 C 15.5625 118.121094 15.515625 119.046875 15.515625 119.980469 L 15.515625 293.53125 C 15.519531 294.863281 15.554688 296.195312 15.625 297.527344 C 15.691406 298.859375 15.792969 300.1875 15.925781 301.511719 C 16.058594 302.839844 16.226562 304.160156 16.425781 305.480469 C 16.621094 306.796875 16.851562 308.109375 17.117188 309.417969 C 17.378906 310.722656 17.671875 312.023438 18 313.316406 C 18.324219 314.609375 18.683594 315.890625 19.070312 317.167969 C 19.460938 318.441406 19.878906 319.707031 20.332031 320.960938 C 20.78125 322.214844 21.265625 323.457031 21.777344 324.6875 C 22.289062 325.917969 22.828125 327.136719 23.402344 328.339844 C 23.972656 329.542969 24.574219 330.734375 25.203125 331.910156 C 25.832031 333.085938 26.488281 334.242188 27.175781 335.386719 C 27.863281 336.527344 28.578125 337.652344 29.316406 338.761719 C 30.058594 339.867188 30.828125 340.957031 31.621094 342.027344 C 32.417969 343.097656 33.238281 344.148438 34.082031 345.175781 C 34.929688 346.207031 35.800781 347.214844 36.695312 348.203125 C 37.59375 349.191406 38.511719 350.15625 39.453125 351.097656 C 40.398438 352.039062 41.363281 352.957031 42.351562 353.851562 C 43.335938 354.746094 44.347656 355.617188 45.378906 356.464844 C 46.40625 357.308594 47.457031 358.128906 48.527344 358.921875 C 49.597656 359.71875 50.6875 360.484375 51.796875 361.226562 C 52.90625 361.964844 54.03125 362.679688 55.171875 363.367188 C 56.316406 364.050781 57.476562 364.707031 58.652344 365.335938 C 59.824219 365.964844 61.015625 366.566406 62.21875 367.136719 C 63.425781 367.707031 64.644531 368.25 65.875 368.757812 C 67.105469 369.269531 68.347656 369.75 69.601562 370.199219 C 70.855469 370.652344 72.121094 371.070312 73.398438 371.457031 C 74.671875 371.847656 75.957031 372.203125 77.25 372.527344 C 78.542969 372.855469 79.839844 373.148438 81.148438 373.410156 C 82.453125 373.671875 83.769531 373.902344 85.085938 374.097656 C 86.402344 374.296875 87.726562 374.460938 89.050781 374.59375 C 90.378906 374.726562 91.707031 374.828125 93.039062 374.894531 C 94.371094 374.960938 95.703125 374.996094 97.035156 375 L 277.964844 375 C 279.289062 375 280.613281 374.964844 281.9375 374.898438 C 283.257812 374.832031 284.578125 374.734375 285.898438 374.601562 C 287.214844 374.472656 288.527344 374.308594 289.839844 374.113281 C 291.148438 373.917969 292.453125 373.691406 293.75 373.429688 C 295.050781 373.171875 296.34375 372.882812 297.628906 372.558594 C 298.910156 372.238281 300.1875 371.882812 301.453125 371.5 C 302.722656 371.113281 303.980469 370.699219 305.226562 370.253906 C 306.472656 369.804688 307.707031 369.328125 308.933594 368.824219 C 310.15625 368.316406 311.367188 367.78125 312.5625 367.214844 C 313.761719 366.648438 314.945312 366.054688 316.113281 365.429688 C 317.28125 364.804688 318.433594 364.152344 319.570312 363.472656 C 320.707031 362.792969 321.824219 362.085938 322.929688 361.351562 C 324.03125 360.617188 325.113281 359.855469 326.175781 359.066406 C 327.242188 358.28125 328.285156 357.464844 329.3125 356.628906 C 330.335938 355.789062 331.339844 354.925781 332.324219 354.035156 C 333.304688 353.148438 334.265625 352.238281 335.203125 351.300781 C 336.140625 350.367188 337.054688 349.410156 337.945312 348.429688 C 338.839844 347.449219 339.703125 346.449219 340.546875 345.425781 C 341.390625 344.40625 342.207031 343.363281 342.996094 342.300781 C 343.789062 341.238281 344.554688 340.15625 345.292969 339.058594 C 346.03125 337.957031 346.742188 336.839844 347.425781 335.707031 C 348.109375 334.574219 348.761719 333.421875 349.390625 332.253906 C 350.019531 331.089844 350.617188 329.90625 351.1875 328.710938 C 351.757812 327.515625 352.296875 326.308594 352.804688 325.085938 C 353.316406 323.863281 353.796875 322.628906 354.246094 321.382812 C 354.699219 320.136719 355.117188 318.882812 355.503906 317.617188 C 355.894531 316.351562 356.25 315.074219 356.578125 313.792969 C 356.902344 312.507812 357.199219 311.21875 357.460938 309.917969 C 357.726562 308.621094 357.957031 307.316406 358.15625 306.007812 C 358.355469 304.699219 358.523438 303.386719 358.65625 302.066406 C 358.792969 300.75 358.894531 299.429688 358.964844 298.109375 C 359.035156 296.785156 359.074219 295.460938 359.082031 294.136719 Z M 359.082031 294.136719 " fill-opacity="1" fill-rule="nonzero"/></g><path fill="#ffffff" d="M 154.246094 91.527344 C 153.582031 91.527344 152.925781 91.589844 152.273438 91.71875 C 151.621094 91.851562 150.992188 92.042969 150.378906 92.296875 C 149.765625 92.550781 149.179688 92.859375 148.628906 93.230469 C 148.078125 93.597656 147.566406 94.015625 147.097656 94.488281 C 146.628906 94.957031 146.210938 95.464844 145.839844 96.019531 C 145.472656 96.570312 145.160156 97.152344 144.90625 97.765625 C 144.652344 98.378906 144.460938 99.011719 144.332031 99.664062 C 144.203125 100.3125 144.136719 100.96875 144.136719 101.632812 C 144.136719 102.296875 144.203125 102.957031 144.332031 103.605469 C 144.460938 104.257812 144.652344 104.890625 144.90625 105.503906 C 145.160156 106.117188 145.472656 106.699219 145.839844 107.25 C 146.210938 107.800781 146.628906 108.3125 147.097656 108.78125 C 147.566406 109.25 148.078125 109.667969 148.628906 110.039062 C 149.179688 110.40625 149.765625 110.71875 150.378906 110.972656 C 150.992188 111.226562 151.621094 111.417969 152.273438 111.546875 C 152.925781 111.675781 153.582031 111.742188 154.246094 111.742188 L 213.125 111.742188 C 213.785156 111.742188 214.445312 111.675781 215.09375 111.546875 C 215.746094 111.417969 216.378906 111.226562 216.992188 110.972656 C 217.605469 110.71875 218.1875 110.40625 218.738281 110.039062 C 219.289062 109.667969 219.800781 109.25 220.269531 108.78125 C 220.738281 108.3125 221.160156 107.800781 221.527344 107.25 C 221.894531 106.699219 222.207031 106.117188 222.460938 105.503906 C 222.714844 104.890625 222.90625 104.257812 223.035156 103.605469 C 223.167969 102.957031 223.230469 102.296875 223.230469 101.632812 C 223.230469 100.96875 223.167969 100.3125 223.035156 99.664062 C 222.90625 99.011719 222.714844 98.378906 222.460938 97.765625 C 222.207031 97.152344 221.894531 96.570312 221.527344 96.019531 C 221.160156 95.464844 220.738281 94.957031 220.269531 94.488281 C 219.800781 94.015625 219.289062 93.597656 218.738281 93.230469 C 218.1875 92.859375 217.605469 92.550781 216.992188 92.296875 C 216.378906 92.042969 215.746094 91.851562 215.09375 91.71875 C 214.445312 91.589844 213.785156 91.527344 213.125 91.527344 Z M 154.246094 91.527344 " fill-opacity="1" fill-rule="nonzero"/><path fill="#ffffff" d="M 185.476562 0.203125 C 184.347656 0.203125 183.21875 0.234375 182.085938 0.289062 C 180.957031 0.347656 179.832031 0.433594 178.703125 0.542969 C 177.578125 0.65625 176.457031 0.796875 175.339844 0.964844 C 174.21875 1.132812 173.105469 1.324219 171.996094 1.546875 C 170.886719 1.769531 169.785156 2.019531 168.6875 2.292969 C 167.589844 2.570312 166.503906 2.871094 165.421875 3.203125 C 164.339844 3.53125 163.265625 3.886719 162.199219 4.269531 C 161.136719 4.652344 160.082031 5.058594 159.035156 5.492188 C 157.992188 5.925781 156.957031 6.382812 155.9375 6.867188 C 154.914062 7.351562 153.90625 7.863281 152.90625 8.394531 C 151.910156 8.929688 150.925781 9.488281 149.957031 10.070312 C 148.988281 10.652344 148.03125 11.257812 147.089844 11.886719 C 146.152344 12.511719 145.226562 13.164062 144.320312 13.839844 C 143.410156 14.511719 142.519531 15.207031 141.644531 15.925781 C 140.769531 16.644531 139.914062 17.382812 139.078125 18.140625 C 138.238281 18.902344 137.421875 19.683594 136.621094 20.480469 C 135.820312 21.28125 135.039062 22.101562 134.28125 22.9375 C 133.523438 23.777344 132.78125 24.632812 132.066406 25.507812 C 131.347656 26.378906 130.652344 27.273438 129.976562 28.179688 C 129.304688 29.089844 128.652344 30.011719 128.023438 30.953125 C 127.394531 31.894531 126.789062 32.847656 126.207031 33.816406 C 125.625 34.789062 125.066406 35.769531 124.535156 36.769531 C 124 37.765625 123.492188 38.773438 123.007812 39.796875 C 122.523438 40.820312 122.0625 41.851562 121.628906 42.898438 C 121.195312 43.941406 120.789062 44.996094 120.40625 46.0625 C 120.027344 47.125 119.671875 48.199219 119.339844 49.28125 C 119.011719 50.363281 118.707031 51.453125 118.433594 52.550781 C 118.15625 53.648438 117.90625 54.75 117.6875 55.859375 C 117.464844 56.96875 117.269531 58.082031 117.101562 59.199219 C 116.933594 60.320312 116.796875 61.441406 116.683594 62.566406 C 116.570312 63.691406 116.484375 64.820312 116.429688 65.949219 C 116.371094 67.078125 116.34375 68.207031 116.339844 69.339844 L 116.339844 152.628906 L 114.015625 152.628906 C 113.351562 152.628906 112.695312 152.691406 112.042969 152.820312 C 111.394531 152.953125 110.761719 153.144531 110.148438 153.398438 C 109.535156 153.652344 108.953125 153.960938 108.402344 154.332031 C 107.847656 154.699219 107.339844 155.121094 106.867188 155.589844 C 106.398438 156.058594 105.980469 156.570312 105.613281 157.121094 C 105.242188 157.671875 104.933594 158.253906 104.679688 158.867188 C 104.421875 159.480469 104.230469 160.113281 104.101562 160.765625 C 103.972656 161.414062 103.910156 162.070312 103.910156 162.734375 C 103.910156 163.398438 103.972656 164.058594 104.101562 164.707031 C 104.230469 165.359375 104.421875 165.992188 104.679688 166.605469 C 104.933594 167.21875 105.242188 167.800781 105.613281 168.351562 C 105.980469 168.902344 106.398438 169.414062 106.867188 169.882812 C 107.339844 170.351562 107.847656 170.769531 108.402344 171.140625 C 108.953125 171.507812 109.535156 171.820312 110.148438 172.074219 C 110.761719 172.328125 111.394531 172.519531 112.042969 172.648438 C 112.695312 172.777344 113.351562 172.84375 114.015625 172.84375 L 138.832031 172.84375 C 139.496094 172.84375 140.152344 172.777344 140.804688 172.648438 C 141.453125 172.519531 142.085938 172.328125 142.699219 172.074219 C 143.3125 171.820312 143.894531 171.507812 144.445312 171.140625 C 145 170.769531 145.507812 170.351562 145.976562 169.882812 C 146.449219 169.414062 146.867188 168.902344 147.234375 168.351562 C 147.605469 167.800781 147.914062 167.21875 148.167969 166.605469 C 148.421875 165.992188 148.613281 165.359375 148.746094 164.707031 C 148.875 164.058594 148.9375 163.398438 148.9375 162.734375 C 148.9375 162.070312 148.875 161.414062 148.746094 160.765625 C 148.613281 160.113281 148.421875 159.480469 148.167969 158.867188 C 147.914062 158.253906 147.605469 157.671875 147.234375 157.121094 C 146.867188 156.570312 146.449219 156.058594 145.976562 155.589844 C 145.507812 155.121094 145 154.699219 144.445312 154.332031 C 143.894531 153.960938 143.3125 153.652344 142.699219 153.398438 C 142.085938 153.144531 141.453125 152.953125 140.804688 152.820312 C 140.152344 152.691406 139.496094 152.628906 138.832031 152.628906 L 136.554688 152.628906 L 136.554688 69.339844 C 136.554688 67.738281 136.636719 66.140625 136.792969 64.542969 C 136.949219 62.949219 137.183594 61.367188 137.496094 59.796875 C 137.808594 58.222656 138.199219 56.671875 138.664062 55.136719 C 139.128906 53.605469 139.667969 52.097656 140.28125 50.617188 C 140.894531 49.136719 141.578125 47.691406 142.332031 46.277344 C 143.089844 44.863281 143.910156 43.492188 144.800781 42.160156 C 145.691406 40.828125 146.644531 39.542969 147.660156 38.304688 C 148.679688 37.066406 149.753906 35.878906 150.886719 34.746094 C 152.019531 33.613281 153.203125 32.539062 154.441406 31.523438 C 155.679688 30.507812 156.964844 29.554688 158.300781 28.664062 C 159.632812 27.773438 161.003906 26.949219 162.417969 26.195312 C 163.828125 25.4375 165.277344 24.753906 166.757812 24.140625 C 168.238281 23.527344 169.742188 22.988281 171.277344 22.523438 C 172.808594 22.058594 174.363281 21.671875 175.933594 21.359375 C 177.503906 21.046875 179.089844 20.808594 180.683594 20.652344 C 182.277344 20.496094 183.875 20.417969 185.476562 20.417969 C 187.082031 20.417969 188.679688 20.496094 190.273438 20.652344 C 191.867188 20.808594 193.449219 21.046875 195.023438 21.359375 C 196.59375 21.671875 198.144531 22.058594 199.679688 22.523438 C 201.214844 22.988281 202.71875 23.527344 204.199219 24.140625 C 205.679688 24.753906 207.128906 25.4375 208.539062 26.195312 C 209.953125 26.949219 211.324219 27.773438 212.65625 28.664062 C 213.988281 29.554688 215.277344 30.507812 216.515625 31.523438 C 217.753906 32.539062 218.9375 33.613281 220.070312 34.746094 C 221.203125 35.878906 222.277344 37.066406 223.296875 38.304688 C 224.3125 39.542969 225.265625 40.828125 226.15625 42.160156 C 227.046875 43.492188 227.867188 44.863281 228.625 46.277344 C 229.378906 47.691406 230.0625 49.136719 230.675781 50.617188 C 231.289062 52.097656 231.828125 53.605469 232.292969 55.136719 C 232.757812 56.671875 233.148438 58.222656 233.460938 59.796875 C 233.773438 61.367188 234.007812 62.949219 234.164062 64.542969 C 234.320312 66.140625 234.398438 67.738281 234.398438 69.339844 L 234.398438 152.628906 L 234.097656 152.628906 C 233.433594 152.628906 232.777344 152.691406 232.125 152.820312 C 231.472656 152.953125 230.84375 153.144531 230.230469 153.398438 C 229.617188 153.652344 229.035156 153.960938 228.480469 154.332031 C 227.929688 154.699219 227.417969 155.121094 226.949219 155.589844 C 226.480469 156.058594 226.0625 156.570312 225.691406 157.121094 C 225.324219 157.671875 225.011719 158.253906 224.757812 158.867188 C 224.503906 159.480469 224.3125 160.113281 224.183594 160.765625 C 224.054688 161.414062 223.988281 162.070312 223.988281 162.734375 C 223.988281 163.398438 224.054688 164.058594 224.183594 164.707031 C 224.3125 165.359375 224.503906 165.992188 224.757812 166.605469 C 225.011719 167.21875 225.324219 167.800781 225.691406 168.351562 C 226.0625 168.902344 226.480469 169.414062 226.949219 169.882812 C 227.417969 170.351562 227.929688 170.769531 228.480469 171.140625 C 229.035156 171.507812 229.617188 171.820312 230.230469 172.074219 C 230.84375 172.328125 231.472656 172.519531 232.125 172.648438 C 232.777344 172.777344 233.433594 172.84375 234.097656 172.84375 L 254.917969 172.84375 C 255.582031 172.84375 256.238281 172.777344 256.890625 172.648438 C 257.542969 172.519531 258.175781 172.328125 258.789062 172.074219 C 259.398438 171.820312 259.984375 171.507812 260.535156 171.140625 C 261.085938 170.769531 261.597656 170.351562 262.066406 169.882812 C 262.535156 169.414062 262.953125 168.902344 263.324219 168.351562 C 263.691406 167.800781 264.003906 167.21875 264.257812 166.605469 C 264.511719 165.992188 264.703125 165.359375 264.832031 164.707031 C 264.960938 164.058594 265.027344 163.398438 265.027344 162.734375 C 265.027344 162.070312 264.960938 161.414062 264.832031 160.765625 C 264.703125 160.113281 264.511719 159.480469 264.257812 158.867188 C 264.003906 158.253906 263.691406 157.671875 263.324219 157.121094 C 262.953125 156.570312 262.535156 156.058594 262.066406 155.589844 C 261.597656 155.121094 261.085938 154.699219 260.535156 154.332031 C 259.984375 153.960938 259.398438 153.652344 258.789062 153.398438 C 258.175781 153.144531 257.542969 152.953125 256.890625 152.820312 C 256.238281 152.691406 255.582031 152.628906 254.917969 152.628906 L 254.617188 152.628906 L 254.617188 69.339844 C 254.613281 68.207031 254.585938 67.078125 254.527344 65.949219 C 254.472656 64.820312 254.386719 63.691406 254.273438 62.566406 C 254.160156 61.441406 254.023438 60.320312 253.855469 59.199219 C 253.6875 58.082031 253.492188 56.96875 253.269531 55.859375 C 253.050781 54.75 252.800781 53.648438 252.523438 52.550781 C 252.25 51.453125 251.945312 50.363281 251.617188 49.28125 C 251.285156 48.199219 250.929688 47.125 250.550781 46.0625 C 250.167969 44.996094 249.761719 43.941406 249.328125 42.898438 C 248.894531 41.851562 248.433594 40.820312 247.949219 39.796875 C 247.464844 38.773438 246.957031 37.765625 246.421875 36.769531 C 245.890625 35.769531 245.332031 34.789062 244.75 33.816406 C 244.167969 32.847656 243.5625 31.894531 242.933594 30.953125 C 242.304688 30.011719 241.652344 29.089844 240.980469 28.179688 C 240.304688 27.273438 239.609375 26.378906 238.890625 25.507812 C 238.175781 24.632812 237.433594 23.777344 236.675781 22.9375 C 235.914062 22.101562 235.136719 21.28125 234.335938 20.480469 C 233.535156 19.683594 232.71875 18.902344 231.878906 18.140625 C 231.042969 17.382812 230.1875 16.644531 229.3125 15.925781 C 228.4375 15.207031 227.546875 14.511719 226.636719 13.839844 C 225.730469 13.164062 224.804688 12.511719 223.867188 11.886719 C 222.925781 11.257812 221.96875 10.652344 221 10.070312 C 220.03125 9.488281 219.046875 8.929688 218.050781 8.394531 C 217.050781 7.863281 216.042969 7.351562 215.019531 6.867188 C 214 6.382812 212.964844 5.925781 211.921875 5.492188 C 210.875 5.058594 209.820312 4.652344 208.757812 4.269531 C 207.691406 3.886719 206.617188 3.53125 205.535156 3.203125 C 204.453125 2.871094 203.367188 2.570312 202.269531 2.292969 C 201.171875 2.019531 200.070312 1.769531 198.960938 1.546875 C 197.851562 1.324219 196.738281 1.132812 195.617188 0.964844 C 194.5 0.796875 193.378906 0.65625 192.253906 0.542969 C 191.125 0.433594 190 0.347656 188.871094 0.289062 C 187.738281 0.234375 186.609375 0.203125 185.476562 0.203125 Z M 185.476562 0.203125 " fill-opacity="1" fill-rule="nonzero"/></svg>